<?xml version="1.0" encoding="UTF-8" standalone="no"?>
<svg
   width="2048"
   height="2048"
   version="1.1"
   id="svg8"
   sodipodi:docname="icon.svg"
   inkscape:version="1.3.2 (091e20e, 2023-11-25, custom)"
   inkscape:export-filename="res\16.png"
   inkscape:export-xdpi="1"
   inkscape:export-ydpi="1"
   xmlns:inkscape="http://www.inkscape.org/namespaces/inkscape"
   xmlns:sodipodi="http://sodipodi.sourceforge.net/DTD/sodipodi-0.dtd"
   xmlns="http://www.w3.org/2000/svg"
   xmlns:svg="http://www.w3.org/2000/svg">
  <defs
     id="defs8" />
  <sodipodi:namedview
     id="namedview8"
     pagecolor="#505050"
     bordercolor="#eeeeee"
     borderopacity="1"
     inkscape:showpageshadow="0"
     inkscape:pageopacity="0"
     inkscape:pagecheckerboard="0"
     inkscape:deskcolor="#505050"
     inkscape:zoom="0.35355339"
     inkscape:cx="1626.3456"
     inkscape:cy="1047.9322"
     inkscape:window-width="1920"
     inkscape:window-height="1009"
     inkscape:window-x="-8"
     inkscape:window-y="-8"
     inkscape:window-maximized="1"
     inkscape:current-layer="g1" />
  <g
     id="g1">
    <path
       id="path1"
       style="fill:#ffffff;fill-opacity:1;stroke:none;stroke-width:1.00004"
       d="M 1019.447,7.437822e-4 C 1002.937,0.03424635 987.82932,0.76072189 971.81232,5.1866803 932.65432,16.007728 896.61342,41.302592 862.30642,62.33168 l -81.75,49.78309 c -70.5566,43.09326 -141.3558,85.78506 -212.3984,128.07425 l -206.8125,124.1677 c -33.116,19.9445 -68.1305,38.19121 -99.7324,60.45189 -20.506,14.44408 -39.8007,31.13337 -52.1387,53.29703 -13.562,24.36385 -20.4166,52.88471 -12.5176,80.14676 -8.785,2.22317 -17.0236,5.17186 -24.9726,9.56518 -0.7507,0.42204 -1.4957,0.85304 -2.2364,1.29307 -0.7407,0.44004 -1.4744,0.88778 -2.2031,1.34581 -0.7293,0.45803 -1.4539,0.92575 -2.1719,1.40245 -0.718,0.47604 -1.4294,0.96183 -2.1347,1.45519 -0.706,0.49337 -1.4063,0.99461 -2.0996,1.50598 -0.6933,0.51071 -1.3799,1.03067 -2.0606,1.55871 -0.6807,0.52737 -1.3542,1.06283 -2.0215,1.60754 -0.6673,0.54404 -1.3284,1.09696 -1.9824,1.65834 -0.654,0.5607 -1.3001,1.13044 -1.9394,1.70716 -0.64,0.57604 -1.2732,1.15937 -1.8985,1.75208 -0.6253,0.59205 -1.2428,1.19159 -1.8535,1.79897 -0.61,0.60805 -1.2145,1.22379 -1.8105,1.84584 -0.5953,0.62272 -1.1825,1.2521 -1.7618,1.88881 -0.58,0.63672 -1.1508,1.28041 -1.7148,1.93179 -0.564,0.65072 -1.12,1.30809 -1.668,1.97281 -0.548,0.66472 -1.0884,1.33774 -1.6191,2.01578 -0.5313,0.67805 -1.0537,1.36217 -1.5684,2.05289 -0.514,0.69073 -1.0202,1.38662 -1.5175,2.09 -0.4973,0.70339 -0.9856,1.41369 -1.4649,2.12908 -0.48,0.71538 -0.9508,1.43555 -1.4121,2.16227 -0.462,0.72739 -0.9154,1.46133 -1.3594,2.19939 -0.444,0.73806 -0.8774,1.48191 -1.3027,2.23064 -0.4253,0.74938 -0.8427,1.50317 -1.25,2.26188 -0.4067,0.75939 -0.8034,1.52247 -1.1914,2.2912 -0.388,0.76939 -0.7674,1.54439 -1.1367,2.32245 -0.3687,0.77805 -0.7282,1.56044 -1.0782,2.34783 -0.3493,0.78739 -0.6888,1.57784 -1.0195,2.37323 -0.33,0.79539 -0.6502,1.59523 -0.9609,2.39862 -0.31,0.80339 -0.6097,1.61132 -0.9004,2.42206 -0.2907,0.81139 -0.5711,1.6242 -0.8418,2.44159 -0.27,0.81807 -0.5306,1.63902 -0.7813,2.46308 -0.25,0.82406 -0.4907,1.65255 -0.7207,2.48261 -5.144,18.17237 -6.9552,37.25328 -7.7812,56.0707 -0.848,19.31645 -0.343,38.79198 -0.3321,58.12944 l 0.074,100.33966 0.01,303.71867 -0.017,207.1173 c -0.016,37.9729 -2.2992,77.1854 1.2968,114.9483 2.687,28.2121 12.2128,56.9948 26.0918,81.6567 17.472,31.0522 44.3176,54.9139 72.7676,75.6853 15.709,11.4609 32.4924,21.1817 49.1523,31.1724 l 67.5801,40.4523 217.9571,130.8713 c 26.1339,15.6912 52.5713,31.0322 78.3632,47.2634 21.786,13.7211 43.0528,28.2009 64.9688,41.7219 34.249,21.1316 68.953,41.3729 103.584,61.8544 26.1359,15.4611 51.788,32.4329 78.709,46.484 46.0429,24.0297 110.9954,30.6557 150.54278,-9.8796 38.6504,37.0357 88.647,30.7921 114.7696,23.8905 17.5899,-4.6304 33.8597,-12.4596 49.6796,-21.3103 24.27,-13.581 47.4399,-29.3822 71.3399,-43.6732 32.8733,-19.5682 65.5822,-39.4112 98.1289,-59.526 26.01,-16.3113 51.5817,-33.3429 77.6816,-49.4941 41.58,-25.7319 83.7488,-50.5827 125.6387,-75.8046 l 178.3008,-107.2875 c 34.86,-20.8616 77.2799,-42.5036 107.9199,-68.3255 38.44,-32.3925 64.3888,-61.5263 78.2188,-111.1999 10.23,-36.7529 7.31,-75.8854 7.25,-113.6982 l -0.02,-94.478 0.01,-310.85966 0.022,-209.70159 0.1289,-65.29991 c 0.05,-14.05705 0.5194,-28.36409 -0.5606,-42.38215 -1.69,-21.77563 -7.7691,-45.1261 -18.6191,-64.18655 -14.14,-24.85087 -36.3506,-39.73611 -63.5605,-47.08367 2.95,-17.1903 1.9299,-34.30212 -2.5801,-51.1504 -7.3,-27.26905 -22.1293,-47.70402 -43.6992,-65.57337 -30.17,-24.99088 -65.6004,-43.51614 -99.0704,-63.59665 L 1558.4372,289.15566 1326.8181,149.1137 1179.1579,59.362703 c -16.35,-9.81104 -32.3192,-20.234327 -48.8691,-29.703441 C 1092.0488,7.7821887 1063.2169,-0.08816301 1019.447,7.437822e-4 Z"
       sodipodi:nodetypes="ssccccscccsscssssscsccsssscscssscsscccscccsccccsccccccccsccccccccccccccccccsccccccs" />
    <path
       fill="#222327"
       d="m 1822.44,609.38661 c 13.95,-0.44803 28.22,1.3021 38.95,11.16786 15,13.77705 20.59,40.31808 21.52,59.83258 0.99,20.9386 0.29,42.09022 0.25,63.05082 l -0.02,103.16389 -0.01,331.39834 0.01,194.0949 c 0.03,28.5921 2.52,70.0853 -1.09,97.1174 -3.69,27.6621 -13.9,57.3444 -32.99,78.196 q -5.55,5.9504 -11.4,11.6009 -5.86,5.6404 -12.01,10.9708 -6.14,5.3304 -12.56,10.3308 -6.42,4.9904 -13.1,9.6407 c -15.02,10.2508 -31.02,19.2915 -46.59,28.6822 l -79.13,47.6637 -245.13,147.7013 -181.3,111.7985 c -31.61,19.5115 -62.67,40.6831 -95.75,57.6444 -15.7,8.0406 -30.72,12.971 -48.39,13.7911 -13.41,0.06 -25.67,-0.7801 -37.14,-8.7007 -13.79,-9.5207 -19.65,-23.3818 -22.39,-39.343 -4.13,-24.0918 -3.61,-49.2538 -3.56,-73.6156 l 0.09,-68.0952 v -244.9288 -275.7011 c -0.02,-46.9036 -3.39,-95.0672 0.91,-141.7808 2.25,-24.3319 8.99,-48.7037 23.31,-68.7753 15.26,-21.3916 34.84,-36.7128 56.21,-51.4939 46.24,-31.97545 96.03,-59.83759 144.09,-89.04182 q 137.77,-83.53339 276.36,-165.68067 c 28.61,-16.9143 56.27,-35.41271 84.54,-52.88005 11.34,-7.00653 23.34,-12.63597 34.7,-19.49949 24.83,-15.01115 49.18,-30.65034 74.22,-45.39947 14.65,-8.62766 28.52,-18.75344 43.49,-26.78305 14.09,-7.55558 28.09,-13.51104 43.91,-16.12724 z"
       id="path2"
       style="fill:#212226;fill-opacity:1;stroke-width:1.00004" />
    <path
       fill="white"
       d="m 1706.67,944.92028 c 1.99,0.21002 2.26,0.45904 3.81,1.58812 1.46,2.98123 1.71,5.74144 1.85,9.02869 0.5,12.44395 -0.3,25.32394 -0.27,37.8239 l -0.03,104.54301 c 0.48,90.3469 0.4467,180.6938 -0.1,271.0407 -14.7,11.4409 -31.75,20.7816 -47.74,30.3023 -25.32,15.0712 -50.84,30.2924 -77.11,43.6334 -0.1933,-43.7434 -0.1033,-87.4867 0.27,-131.2301 0.11,-25.5519 1.33,-52.124 -1.06,-77.5359 -20.36,5.3204 -41.08,19.7015 -57.17,32.8525 0.32,26.5687 -0.1633,53.1241 -1.45,79.6661 -16.2811,10.3394 -92.7356,54.7653 -107.26,63.1648 -0.5089,-20.9044 -2.2059,-58.94 -3.14,-77.9759 -24.953,12.784 -37.6814,19.9669 -58.49,33.1825 -3.4071,64.4501 -3.1825,125.1382 -2.68,192.3647 0.16,8.6507 2.05,22.6318 -3.73,29.6623 -6.07,7.3706 -102.55,64.4849 -110.9,65.165 -2.27,-3.7403 -1.95,-9.7108 -2.05,-14.0011 -0.44,-20.0615 0.42,-40.1631 0.53,-60.2246 l 0.04,-116.6689 -0.04,-134.6203 c -0.04,-23.5518 -0.7,-47.2036 -0.14,-70.7554 0.24,-9.6008 1.01,-18.9815 2.51,-28.4722 19.64,-14.4011 41.18,-26.7921 62.02,-39.413 29.4867,-18.0947 59.3933,-35.466 89.72,-52.114 2.2363,23.5471 1.74,56.4443 3.43,81.4362 19.69,-8.9707 38.45,-21.1216 57.02,-32.2224 32.0933,-19.2082 63.9733,-38.7597 95.64,-58.6545 0.07,-29.0723 -0.72,-58.5145 2.01,-87.4867 15.78,-13.8311 36.17,-23.0318 54.24,-33.6426 33.7533,-19.6015 67.1767,-39.74704 100.27,-60.43662 z"
       id="path3"
       style="fill:#ffffff;fill-opacity:1;stroke:none;stroke-width:1.00004"
       sodipodi:nodetypes="cccccccccccccccccccccccccccccccc" />
    <path
       fill="#222327"
       d="m 205.67,609.49062 q 3.057,-0.18101 6.12,-0.18501 3.062,-0.005 6.12,0.16701 3.057,0.17201 6.1,0.51904 3.043,0.34703 6.06,0.86907 3.018,0.52104 6.001,1.21509 2.983,0.69505 5.92,1.55912 2.938,0.86507 5.822,1.89714 2.883,1.03208 5.702,2.22818 c 22.933,9.64773 42.929,25.51195 64.428,37.90989 79.105,45.61549 155.904,94.87426 233.979,142.18988 l 259.464,155.39889 76.508,46.34854 c 20.112,12.26994 40.627,24.40084 59.398,38.69194 21.059,16.0313 41.128,38.403 51.036,63.2049 6.282,15.7412 9.522,32.8225 10.442,49.7038 2.32,42.4232 0.31,85.8065 0.3,128.3498 v 250.2591 l -0.01,262.4201 0.11,77.4059 c 0.09,17.3313 0.66,34.8227 -0.19,52.134 -0.71,14.6111 -3,30.0823 -8.84,43.5933 -7.003,16.1813 -17.815,25.032 -33.986,31.3124 -22.253,3.4703 -42.715,-0.95 -63.067,-10.1707 -34.611,-15.6812 -66.918,-39.283 -99.32,-59.1846 Q 709.038,1868.773 613.718,1811.1985 l -240.019,-144.711 c -44.944,-26.8321 -98.772,-54.3642 -139.473,-86.0466 -26.294,-20.4716 -45.977,-41.1532 -57.775,-72.7856 q -2.324,-6.2605 -4.183,-12.6809 -1.859,-6.4205 -3.243,-12.961 -1.384,-6.5305 -2.287,-13.151 -0.902,-6.6205 -1.318,-13.2911 c -2.487,-40.9231 -0.507,-85.1365 -0.501,-126.3696 l 0.016,-240.0584 0.041,-265.70231 c 0.001,-44.34839 -1.994,-89.43184 0.215,-133.67823 0.854,-17.0903 2.528,-35.69573 9.832,-51.42093 6.369,-13.71305 16.284,-23.64381 30.647,-28.85121 z"
       id="path4"
       style="fill:#212226;fill-opacity:1;stroke-width:1.00004" />
    <path
       fill="white"
       d="m 337.228,945.29131 c 16.578,5.71844 44.354,24.66889 60.59,34.35163 33.302,19.86052 67.09,38.87496 99.605,60.02656 1.106,17.3114 0.622,34.8427 0.284,52.164 -0.202,10.3508 -0.898,20.7416 0.451,31.0324 0.457,0.49 0.907,0.9701 1.373,1.4501 6.324,6.4505 14.452,11.7809 21.968,16.7213 23.487,15.4312 48.329,28.7822 72.411,43.2433 15.358,9.2207 30.056,19.8415 45.84,28.3122 2.863,1.5401 5.637,3.2102 8.932,3.2302 2.47077,-26.0091 3.7383,-67.833 5.279,-78.756 13.238,4.6803 29.285,16.1412 41.729,23.3818 37.075,21.5816 75.004,43.0233 110.445,67.2151 l 0.081,308.9536 c -0.0453,18.5415 0.20133,37.0762 0.74,55.6043 0.475,20.2215 2.045,41.5532 -2.033,61.4547 -18.807,-9.0007 -100.973,-56.4643 -113.041,-68.8653 l -0.019,-23.6718 0.073,-120.0392 c 0.079,-24.1318 1.998,-48.9637 -1.256,-72.9155 -15.472,-16.1813 -39.08,-26.8021 -58.625,-37.5429 -0.382,15.9612 2.694,65.345 -1.535,76.9659 -0.688,1.8901 -0.786,1.5401 -2.427,2.3402 -10.764,-1.0901 -97.051,-54.9743 -107.754,-64.745 -0.649,-25.912 -0.232,-51.904 -0.184,-77.826 -16.63,-14.311 -37.588,-24.9719 -57.332,-34.4226 -2.7,26.6521 4.18,199.6853 -2.775,208.0959 -12.637,-1.1501 -108.937,-61.2046 -123.938,-71.7655 -1.442,-31.6324 -0.189,-63.7048 -0.17,-95.3973 l 0.044,-183.584 -0.268,-90.53792 c -0.068,-17.29633 -2.159,-37.68789 1.512,-54.47417 z"
       id="path5"
       style="fill:#ffffff;fill-opacity:1;stroke:none;stroke-width:1.00004"
       sodipodi:nodetypes="cscscccccccccccccccccscccccccccc" />
    <path
       fill="#222327"
       d="m 1008.74,51.37413 c 14.42,-3.600276 42.87,1.560419 57.05,5.88645 16.41,5.006883 32.01,13.880162 46.87,22.389813 30.83,17.65415 60.71,37.261547 91.19,55.573947 l 318.48,193.52681 152.05,91.40999 c 34.23,20.37656 71.09,38.93198 101.82,64.48993 15.1906,12.63872 42.7225,58.19642 9.2,94.96827 -19.7,21.61865 -75.14,50.57387 -102.45,66.99512 l -133.96,80.88719 c -104.84,65.27766 -210.4433,129.29922 -316.81,192.06469 l -84.82,50.85689 c -17.04,10.22178 -33.96,21.10462 -51.63,30.18327 -16.51,8.4907 -33.79,14.7212 -52.48,15.4612 -27.97,0.31 -54.361,-0.37 -80.454,-11.7709 -36.938,-16.13321 -78.531,-44.34337 -113.578,-65.30397 L 615.292,797.10697 381.884,655.91017 321.172,619.27737 c -16.813,-9.92676 -34.216,-19.33848 -49.947,-30.94337 -15.97,-11.7809 -23.209,-26.65804 -25.92,-45.93051 -2.349,-16.69828 5.666,-34.50664 15.599,-47.59664 8.854,-11.66789 20.924,-20.34856 33.021,-28.37917 12.502,-8.29864 25.762,-15.40018 38.568,-23.21478 29.35267,-18.03405 58.79967,-35.91274 88.341,-53.6361 L 664.234,243.53063 855.92,127.66377 C 890.832,106.55915 925.252,83.735705 961.515,65.033575 976.6,57.25378 992.002,53.6042 1008.74,51.37413 Z"
       id="path6"
       style="fill:#212226;fill-opacity:1;stroke-width:1.00004"
       sodipodi:nodetypes="ccccccccccccccccccccsscccccsc" />
    <path
       id="path7"
       d="m 1132.8105,220.28638 c -32.0425,4.15665 -53.1603,43.56603 -82.3203,51.18361 -9.5,2.48119 -20.9307,1.53561 -30.7207,1.3126 -13.43,-0.30503 -25.14278,-1.16546 -36.96677,-8.44401 -31.90996,-19.64248 -38.67053,-50.39047 -84.52148,-40.01869 -17.88198,4.04531 -63.57126,12.60765 -73.90625,28.26584 -16.63498,25.2029 32.07711,73.65578 -45.50781,92.33518 -56.57295,13.62104 -78.88939,-34.74058 -123.15235,36.37779 -5.20699,8.36663 -11.14567,18.91139 -8.76367,29.08816 2.122,9.06369 9.69707,15.24281 17.41406,19.68315 18.83299,10.83782 44.34081,14.75041 52.24219,33.95963 6.97631,16.96027 1.47225,40.64088 -11.67773,53.76388 -15.85199,15.82119 -57.59121,13.7204 -58.65821,43.11462 -0.618,17.02329 15.29827,38.98854 26.78125,50.56441 10.75199,10.83982 22.18455,14.90997 37.14454,14.92498 32.07596,0.033 52.14934,-10.81036 83.44531,4.43979 7.77899,3.79029 15.66404,8.59036 21.83203,14.72183 6.51299,6.47549 10.30522,14.10718 10.32422,23.37288 0.03,15.34315 -9.33942,30.89788 -4.9043,45.48981 1.23354,4.05846 4.74883,7.07849 8.17383,9.7527 16.94798,13.231 46.30533,20.73643 67.32031,24.84174 7.97399,1.55811 15.73239,2.25983 23.85938,2.09782 34.54096,-4.99138 44.7707,-42.89869 76.13867,-52.02937 9.47398,-2.75722 20.73318,-2.42941 30.53318,-2.07438 15.48,0.56304 28.9809,3.5913 41.6309,13.04201 25.74,19.21645 36.6002,45.71426 73.9101,40.63787 19.04,-2.59118 69.7084,-17.12465 80.5684,-31.98877 4.52,-6.18247 5.1316,-13.67902 3.8516,-21.04457 -2.75,-15.7412 -9.9811,-31.15046 -0.1211,-46.12658 9.83,-14.93513 31.9804,-25.65279 49.1504,-28.67603 38.7099,-6.81751 75.8005,21.60839 104.8105,-18.86667 8.35,-11.65588 21.629,-31.3153 19.459,-46.34143 -1.04,-7.19255 -5.7199,-12.44606 -11.5899,-16.37236 -14.9999,-10.04275 -41.9593,-12.99374 -51.2793,-29.68 -2.68,-4.78936 -3.6913,-10.53075 -4.8613,-15.83715 -2.6,-11.8699 -5.5097,-25.11101 1.2403,-36.20785 14.5499,-23.9328 72.6103,-23.19496 65.6503,-58.91465 -3.48,-17.89536 -21.0805,-42.39028 -36.5605,-52.045 -34.62,-21.59664 -75.0686,15.9399 -118.7285,-14.23937 -11.91,-8.22862 -18.3919,-18.74055 -22.0606,-30.83439 -4.6324,-15.27066 9.8393,-34.35735 1.5293,-47.84937 -2.93,-4.76936 -7.1993,-8.4271 -12.0293,-11.19031 -18.1899,-10.40979 -51.4698,-27.7191 -78.6797,-24.18935 z M 1030.3652,336.4984 c 58.8258,0.72636 121.0172,20.3073 165.9746,56.65667 25.16,20.34254 44.9499,48.0281 48.3399,80.90658 0.1067,0.95475 0.2012,1.91067 0.2812,2.86741 0.08,0.95741 0.149,1.91648 0.209,2.87522 0.053,0.95874 0.097,1.91777 0.1309,2.87717 0.033,0.96008 0.052,1.91906 0.059,2.87913 0.013,0.96074 0.01,1.92101 -0.01,2.88108 -0.013,0.96074 -0.04,1.92167 -0.08,2.88108 -0.04,0.95941 -0.09,1.91843 -0.1504,2.87717 -0.067,0.95808 -0.1418,1.91458 -0.2285,2.87131 -0.087,0.95608 -0.1874,1.91139 -0.3008,2.86546 -0.1133,0.95408 -0.2358,1.9069 -0.3691,2.85764 -0.1333,0.95074 -0.2814,1.89919 -0.4414,2.84592 -0.16,0.9474 -0.3298,1.89341 -0.5098,2.83616 -0.1866,0.94274 -0.3831,1.88245 -0.5898,2.82052 -0.2067,0.93807 -0.4237,1.87412 -0.6504,2.80686 -0.2333,0.93207 -0.4752,1.86059 -0.7285,2.78732 -0.2534,0.92607 -0.5177,1.84967 -0.791,2.76974 -0.28,0.92007 -0.5661,1.83619 -0.8594,2.74826 -0.3,0.91274 -0.6128,1.82204 -0.9395,2.72677 -0.32,0.90474 -0.6533,1.80465 -1,2.70139 -0.34,0.89606 -0.6938,1.78791 -1.0605,2.67598 -0.3667,0.8874 -0.7473,1.77057 -1.1406,2.64863 -0.3867,0.87807 -0.7859,1.75129 -1.1993,2.61934 -0.4133,0.86741 -0.8331,1.72875 -1.2597,2.58614 -0.4334,0.8574 -0.8768,1.71011 -1.3301,2.55684 -0.46,0.84606 -0.9271,1.68695 -1.4004,2.52168 -0.4733,0.83472 -0.9609,1.6625 -1.4609,2.48456 -0.4934,0.82273 -0.9965,1.64002 -1.5098,2.44941 -0.52,0.81006 -1.0467,1.61166 -1.5801,2.40838 -0.54,0.79606 -1.0853,1.5866 -1.6386,2.36932 -0.56,0.78273 -1.1279,1.55763 -1.7012,2.32636 -0.5733,0.76872 -1.1598,1.53127 -1.7598,2.28533 -0.5933,0.75405 -1.1972,1.49973 -1.8105,2.23845 -41.89,50.99285 -109.4599,71.60361 -172.7598,77.95909 -17.21,0.26002 -34.499,0.68825 -51.66601,-0.84186 -51.03595,-4.54934 -104.94768,-22.96007 -144.68164,-55.99257 -25.65497,-21.32861 -44.7543,-50.24795 -47.65429,-84.08651 -2.692,-31.41937 8.33495,-61.40274 28.71093,-85.17252 42.81896,-49.94877 110.45886,-69.23237 173.84181,-74.41977 0.26,-0.036 0.5095,-0.0864 0.7695,-0.10742 8.2063,-0.67193 16.5417,-0.95149 24.9453,-0.84772 z"
       style="fill:#ffffff;fill-opacity:1;stroke:none;stroke-width:1.00004"
       sodipodi:nodetypes="accccsccccacscccccaccccccccccccccccccccaccasscscsccscsssscsccccccscsccsccccscccccccccss" />
  </g>
</svg>
