<?xml version="1.0" encoding="UTF-8" standalone="no"?>
<svg
   width="1024"
   height="1023"
   version="1.1"
   id="svg4"
   sodipodi:docname="configure.svg"
   inkscape:version="1.3.2 (091e20e, 2023-11-25, custom)"
   xmlns:inkscape="http://www.inkscape.org/namespaces/inkscape"
   xmlns:sodipodi="http://sodipodi.sourceforge.net/DTD/sodipodi-0.dtd"
   xmlns="http://www.w3.org/2000/svg"
   xmlns:svg="http://www.w3.org/2000/svg">
  <sodipodi:namedview
     id="namedview4"
     pagecolor="#505050"
     bordercolor="#eeeeee"
     borderopacity="1"
     inkscape:showpageshadow="0"
     inkscape:pageopacity="0"
     inkscape:pagecheckerboard="0"
     inkscape:deskcolor="#505050"
     inkscape:zoom="0.5619529"
     inkscape:cx="734.93704"
     inkscape:cy="454.66444"
     inkscape:window-width="1920"
     inkscape:window-height="1009"
     inkscape:window-x="-8"
     inkscape:window-y="-8"
     inkscape:window-maximized="1"
     inkscape:current-layer="svg4" />
  <path
     d="m 467.74365,195.8934 c 19.7964,-55.04436 55.6228,-101.460441 102.4664,-136.133643 62.9377,-46.58876 141.4444,-63.20796 218.47298,-51.4458 26.8935,4.10682 53.3762,14.0162 77.7746,25.87337 -22.9845,22.82804 -46.7318,44.80946 -69.5571,67.834483 -36.10008,36.4159 -71.42628,73.95503 -108.84248,109.01857 6.2952,34.32029 17.9355,67.28823 27.8099,100.68367 15.9964,3.03163 32.2611,8.95519 47.8411,13.78903 18.38738,5.64043 36.83978,11.06196 55.35728,16.26463 18.0473,-16.26742 34.692,-33.64132 51.8479,-50.81684 l 76.3524,-76.03945 c 6.4908,-6.41811 13.1799,-12.67138 19.5617,-19.19567 9.2346,-9.43857 17.9355,-18.82126 28.352,-27.01085 6.79537,17.5611 14.38137,35.25912 19.21247,53.47964 14.7614,55.66186 13.3475,122.00009 -10.0868,175.34841 -32.41187,73.78738 -89.80887,133.28558 -165.55217,162.37248 -52.7504,20.25744 -112.06698,22.05686 -166.69218,8.25944 -15.4543,-3.9006 -29.981,-10.30754 -45.3208,-14.37859 -9.9499,10.99211 -20.7213,21.35274 -31.1573,31.88941 l -54.927,55.47185 c -58.2706,59.97879 -115.0296,121.46804 -172.967,181.7981 -24.0555,25.04908 -48.2591,49.95598 -72.5161,74.81008 -27.6684,28.3495 -57.0778,56.233 -83.2949,84.7651 -14.1003,15.3453 -32.8588,33.39448 -54.4697,36.05778 -38.11574,4.6972 -79.338135,-13.5389 -108.635645,-38.36898 -25.63646,-21.7273 -50.2328499,-54.699 -48.70559992,-88.2694 0.76124,-16.7325 18.75866992,-31.8922 28.17097992,-41.6101 31.02239,-32.02916 63.02132,-63.24797 94.567045,-94.76855 l 170.93642,-170.72412 117.4932,-117.40375 39.7185,-39.80797 c 7.8292,-7.9493 15.3705,-16.23948 23.4483,-23.93172 -12.6434,-19.93053 -19.1559,-49.50541 -21.3052,-75.59798 -3.6399,-44.19084 -0.091,-90.84179 14.6468,-132.21263 z"
     id="path1"
     sodipodi:nodetypes="ccccsccccccccccsccccaasaaaccccccac"
     style="stroke-width:2.79413" />
  <defs
     id="defs3">
    <linearGradient
       id="gradient_0"
       gradientUnits="userSpaceOnUse"
       x1="232.78905"
       y1="170.14349"
       x2="233.98062"
       y2="170.11249">
      <stop
         offset="0"
         stop-color="#010001"
         stop-opacity="0.94117647"
         id="stop2" />
      <stop
         offset="1"
         stop-color="#010000"
         stop-opacity="0.97254902"
         id="stop3" />
    </linearGradient>
  </defs>
</svg>
