<?xml version="1.0" encoding="UTF-8" standalone="no"?>
<svg
   width="1024"
   height="1023"
   version="1.1"
   id="svg2"
   sodipodi:docname="launch.svg"
   inkscape:version="1.3.2 (091e20e, 2023-11-25, custom)"
   xmlns:inkscape="http://www.inkscape.org/namespaces/inkscape"
   xmlns:sodipodi="http://sodipodi.sourceforge.net/DTD/sodipodi-0.dtd"
   xmlns="http://www.w3.org/2000/svg"
   xmlns:svg="http://www.w3.org/2000/svg">
  <defs
     id="defs2" />
  <sodipodi:namedview
     id="namedview2"
     pagecolor="#505050"
     bordercolor="#eeeeee"
     borderopacity="1"
     inkscape:showpageshadow="0"
     inkscape:pageopacity="0"
     inkscape:pagecheckerboard="0"
     inkscape:deskcolor="#505050"
     inkscape:zoom="0.3973607"
     inkscape:cx="880.81181"
     inkscape:cy="534.7786"
     inkscape:window-width="1920"
     inkscape:window-height="1009"
     inkscape:window-x="-8"
     inkscape:window-y="-8"
     inkscape:window-maximized="1"
     inkscape:current-layer="svg2" />
  <g
     id="g2"
     transform="matrix(1.2973717,0,0,1.2973717,-152.1468,-139.84092)">
    <path
       transform="scale(2)"
       d="m 166.192,330.001 -0.002,-88.117 c 0,-60.778 3.1,-73.857 38.129,-120.564 l 18.025,-24.0292 c 8.76,-11.7847 14.45,-22.9754 30.8,-24.6985 0.783,-0.253 2.097,-0.2078 2.93,-0.2116 15.542,-0.0701 20.881,8.27 28.985,19.1663 l 28.412,38.318 c 27.44,36.632 32.546,61.166 32.562,107.205 l -0.001,92.931 h -54.29 c 0.512,21.482 -8.136,40.179 -31.68,42.742 -10.844,0.83 -21.815,-2.311 -29.579,-10.233 -9.905,-10.108 -10.151,-19.741 -9.981,-32.509 z m 86.952,-173.169 c -38.291,5.144 -33.173,60.03 5.818,57.824 40.009,-4.78 30.552,-62.074 -5.818,-57.824 z"
       id="path1" />
    <path
       transform="scale(2)"
       d="m 453.24,383.596 c 0.015,14.258 1.229,28.658 -10.819,38.973 -10.287,8.807 -21.698,7.321 -34.27,7.322 l -298.708,0.008 c -16.5697,0.012 -32.0854,2.368 -44.106,-11.842 -7.8145,-9.237 -6.6394,-18.859 -6.6355,-30.155 0.009,-25.907 -0.5765,-24.452 16.7587,-41.626 l 48.1808,-48.593 c 2.87,-2.842 5.66,-5.782 8.743,-8.396 0.781,0.999 0.009,9.5 0.006,11.401 l -0.014,38.655 c 0.003,23.957 6.079,24.549 28.202,24.537 l 30.21,-0.013 c 0.705,2.634 1.78,5.069 3.06,7.473 27.921,52.436 109.682,46.473 125.71,-7.473 l 28.905,0.013 c 29.273,-0.002 31.151,-1.619 31.156,-33.481 0.002,-13.692 -0.253,-27.426 -0.01,-41.112 2.861,2.648 5.556,5.528 8.336,8.265 l 54.998,54.512 c 10.36,10.417 10.337,17.644 10.297,31.532 z"
       id="path2" />
  </g>
</svg>
