<?xml version="1.0" encoding="UTF-8" standalone="no"?>
<svg
   width="1024"
   height="1023"
   version="1.1"
   id="svg1"
   sodipodi:docname="search.svg"
   inkscape:version="1.3.2 (091e20e, 2023-11-25, custom)"
   xmlns:inkscape="http://www.inkscape.org/namespaces/inkscape"
   xmlns:sodipodi="http://sodipodi.sourceforge.net/DTD/sodipodi-0.dtd"
   xmlns="http://www.w3.org/2000/svg"
   xmlns:svg="http://www.w3.org/2000/svg">
  <defs
     id="defs1" />
  <sodipodi:namedview
     id="namedview1"
     pagecolor="#505050"
     bordercolor="#eeeeee"
     borderopacity="1"
     inkscape:showpageshadow="0"
     inkscape:pageopacity="0"
     inkscape:pagecheckerboard="0"
     inkscape:deskcolor="#505050"
     inkscape:zoom="0.5619529"
     inkscape:cx="788.3223"
     inkscape:cy="712.69319"
     inkscape:window-width="1920"
     inkscape:window-height="1009"
     inkscape:window-x="-8"
     inkscape:window-y="-8"
     inkscape:window-maximized="1"
     inkscape:current-layer="svg1" />
  <path
     id="path1"
     style="stroke-width:2.41119"
     d="M 373.76989,2.1786952 C 343.88673,3.2236582 314.26087,8.3853162 285.37562,15.970681 220.54234,33.530829 159.9713,67.395869 112.02906,114.56056 67.382383,158.34243 33.755153,213.4338 16.035393,273.45072 c -23.2050204,77.55096 -21.1715854,162.42229 5.75375,238.76326 13.39327,37.93248 33.05473,73.63513 57.93223,105.24699 34.140807,43.60561 77.893037,79.58721 127.121517,104.92566 59.1536,30.50917 126.13771,45.94907 192.70111,43.52747 57.95886,-2.03208 115.41731,-17.38625 166.63346,-44.60347 29.36954,28.24432 57.99975,57.23854 86.94231,85.95584 53.27798,53.06509 106.65289,106.03323 159.86369,159.16555 11.83581,12.3306 23.61829,24.97 37.82304,34.63738 17.51272,12.1607 38.3569,19.8546 59.74692,20.6507 27.63382,1.3305 55.68582,-8.4159 76.35802,-26.84228 20.80836,-18.1116 34.50946,-44.3815 36.74286,-71.93934 2.1541,-25.60667 -5.8512,-51.78984 -21.4747,-72.13327 -10.45976,-14.20731 -24.06926,-25.59319 -36.54986,-37.92794 -20.0333,-19.77562 -39.8711,-39.76268 -59.86079,-59.60035 -62.07638,-61.87904 -124.15276,-123.75807 -186.22913,-185.6371 25.15413,-45.28961 40.51705,-95.99589 44.63995,-147.6418 5.85049,-72.17687 -9.7452,-145.74568 -43.30638,-209.83001 C 687.52619,146.19163 636.47662,91.300889 574.23769,54.632569 520.32038,22.775362 458.3664,4.6464192 395.7739,2.4947642 388.44385,2.1870762 381.10587,2.1214762 373.76989,2.1786952 Z m 14.6814,201.1010348 c 22.00276,0.19645 43.8159,5.25767 64.09342,13.67193 18.20498,7.57186 35.28598,17.93872 50.19647,30.85694 15.66683,13.67359 28.90986,30.09331 39.14169,48.18735 2.16721,3.8522 4.27248,7.96397 6.09295,11.85256 6.78348,14.63013 11.47662,30.2184 13.97971,46.14692 0.23908,1.59304 0.51885,3.46874 0.72865,5.17946 1.16969,9.24639 1.59717,18.58322 1.34817,27.89901 -0.0587,1.99038 -0.15505,4.24315 -0.28829,6.33273 -0.31635,5.04138 -0.83343,10.06986 -1.54128,15.07128 -0.17642,1.17945 -0.39771,2.68782 -0.6219,3.98926 -5.16328,31.19136 -18.07865,61.08778 -37.3708,86.14535 -0.52572,0.6761 -1.29074,1.64376 -1.90832,2.43177 -15.72019,19.7359 -35.58449,36.25314 -58.19288,47.52669 -1.83574,0.91279 -3.99139,1.94177 -5.98907,2.84243 -15.79884,7.16784 -32.74643,11.70055 -49.96695,13.71161 -2.63671,0.30331 -5.55598,0.58708 -8.18855,0.77242 -3.50178,0.25053 -7.01088,0.37985 -10.51935,0.4944 -1.69533,0.0259 -3.67437,0.0905 -5.48073,0.0853 -7.80259,0.0382 -15.61608,-0.20572 -23.38052,-1.00836 -1.23292,-0.14558 -2.79264,-0.30531 -4.14727,-0.49467 -4.61878,-0.59319 -9.47819,-1.43071 -14.14806,-2.44175 -3.73788,-0.80535 -7.44705,-1.74136 -11.12399,-2.79015 -1.3966,-0.40357 -3.08185,-0.90261 -4.57661,-1.38243 -18.41069,-5.81057 -35.79343,-14.83556 -51.1365,-26.55378 -1.38187,-1.05579 -2.67937,-2.06104 -3.9692,-3.10697 -19.06043,-15.34127 -34.87677,-34.62455 -46.50647,-56.13396 -0.52577,-0.99041 -1.21817,-2.26989 -1.78596,-3.3859 -3.38576,-6.5222 -6.40707,-13.34283 -8.99846,-20.13495 -1.59125,-4.19229 -3.10272,-8.6098 -4.41265,-12.9719 -1.34993,-4.49417 -2.50004,-8.88961 -3.53225,-13.48991 -0.65379,-2.91349 -1.21754,-5.76338 -1.71719,-8.602 -0.7242,-4.11031 -1.31523,-8.26843 -1.76044,-12.36877 -0.38794,-3.54633 -0.66566,-7.12207 -0.84533,-10.6031 -0.23277,-4.8595 -0.28847,-9.71007 -0.1415,-14.62565 0.0704,-2.07022 0.15889,-3.93429 0.29284,-6.02086 0.75044,-11.60654 2.65846,-23.13779 5.68356,-34.36812 0.4244,-1.53174 0.9308,-3.33947 1.42711,-4.96562 3.78771,-12.58194 9.10767,-24.68814 15.70079,-36.05046 0.66885,-1.12334 1.48938,-2.52833 2.24342,-3.74338 13.59728,-22.13034 31.93166,-41.31464 53.31105,-56.0496 17.82544,-12.26384 37.89223,-21.25674 58.92513,-26.3434 1.76768,-0.41921 3.80125,-0.89407 5.68431,-1.28424 11.05974,-2.3301 22.32415,-3.68241 33.61993,-4.06087 3.15226,-0.0791 6.54422,-0.20132 9.78132,-0.21663 z" />
</svg>
