<?xml version="1.0" encoding="UTF-8" standalone="no"?>
<svg
   width="1024"
   height="1023"
   version="1.1"
   id="svg1"
   sodipodi:docname="settings.svg"
   inkscape:version="1.3.2 (091e20e, 2023-11-25, custom)"
   xmlns:inkscape="http://www.inkscape.org/namespaces/inkscape"
   xmlns:sodipodi="http://sodipodi.sourceforge.net/DTD/sodipodi-0.dtd"
   xmlns="http://www.w3.org/2000/svg"
   xmlns:svg="http://www.w3.org/2000/svg">
  <defs
     id="defs1" />
  <sodipodi:namedview
     id="namedview1"
     pagecolor="#505050"
     bordercolor="#eeeeee"
     borderopacity="1"
     inkscape:showpageshadow="0"
     inkscape:pageopacity="0"
     inkscape:pagecheckerboard="0"
     inkscape:deskcolor="#505050"
     inkscape:zoom="0.3973607"
     inkscape:cx="1205.4539"
     inkscape:cy="864.45387"
     inkscape:window-width="1920"
     inkscape:window-height="1009"
     inkscape:window-x="-8"
     inkscape:window-y="-8"
     inkscape:window-maximized="1"
     inkscape:current-layer="svg1" />
  <path
     d="m 608.67515,1023.5873 c -8.60885,0.8473 -17.89449,0.073 -26.59268,0.054 l -121.4308,-0.03 c -50.55939,0.078 -60.44062,7.6153 -65.83062,-47.45432 C 384.83424,874.1367 269.66516,810.62613 176.22937,845.88722 c -27.67556,10.44432 -54.37653,36.16796 -78.240374,2.45001 -11.14304,-15.7477 -20.33746,-33.66927 -30.27986,-50.24536 l -39.95887,-67.2519 c -26.5921401,-45.08276 -37.96638,-53.98398 8.47917,-81.37799 94.922584,-55.98459 94.440704,-211.38245 6.74279,-273.84263 -31.03815,-22.10687 -54.00727,-20.58543 -24.90773,-67.103 l 57.06503,-91.84397 c 29.381084,-47.98486 28.728654,-71.65649 88.606184,-42.22397 93.93121,46.17105 207.68713,-11.77896 227.76362,-113.375296 4.61846,-23.37925 -3.96332,-55.5184104 27.67014,-61.0118304 l 161.85178,-0.0596 c 45.94365,-0.12534 46.3795,6.67023 48.83763,46.4331004 6.60824,106.856936 134.04086,179.631486 229.61804,129.705576 51.1685,-26.72804 54.6581,-25.65599 83.9552,26.035 l 60.87108,104.37824 c 29.1022,50.34553 13.7633,46.70436 -25.56398,75.49257 -83.8036,61.34482 -82.2442,195.64558 -1.6865,259.29963 33.68008,26.61434 60.42708,22.41549 26.76858,78.21599 l -63.23978,106.31117 c -6.9385,11.68963 -13.6199,28.68534 -25.1011,36.71214 -19.6541,13.74709 -37.0965,-3.46519 -54.53079,-11.57051 -95.25502,-44.28684 -207.8604,12.76167 -228.3971,115.06079 -5.07868,25.2852 0.97729,40.54292 -23.87738,57.51152 z M 509.84664,329.00202 c -102.33702,-0.3763 -182.64026,84.56706 -182.68086,185.79955 -0.0379,99.13983 82.02771,185.68854 182.45617,185.24998 l 5.74194,-0.0839 C 615.45394,699.8079 698.53746,615.28687 697.67658,515.28615 696.80486,413.64488 613.73759,325.41771 509.84664,329.00202 Z"
     id="path1"
     style="stroke-width:2.70719" />
</svg>
